# xmcd
#
# Track frame offsets: 
#        150
#        11991
#        24791
#        38181
#        47824
#        57198
#        70583
#        85173
#        96142
#        109525
#        123926
#        136497
#        148560
#        163702
#        176882
#        191083
#        203463
#        217278
#        231121
#        241078
#
# Disc length: 3391 seconds
#
# Revision: 0
# Processed by: cddbd v1.5.2PL0 Copyright (c) Steve Scherf et al.
# Submitted via: ExactAudioCopy v0.90b2
#
DISCID=140d3d14
DTITLE=Howlin' Wolf - Come Back Home
DYEAR=2004
DGENRE=Blues
TTITLE0=Baby Ride With Me
TTITLE1=How Many More Years
TTITLE2=California Boogie
TTITLE3=Look A Here Baby
TTITLE4=Smile At Me
TTITLE5=My Baby Walked Off
TTITLE6=My Troubles And Me
TTITLE7=Mr Highway Man
TTITLE8=Everyboby's In The Mood
TTITLE9=Color And Kind
TTITLE10=Bluebird
TTITLE11=Dorothy Mae
TTITLE12=Sweet Woman (I Got A Woman)
TTITLE13=Well That's All Right
TTITLE14=Decoration Day
TTITLE15=Oh Red
TTITLE16=Drinkin' CV Wine
TTITLE17=My Last Affair
TTITLE18=Come Back Home
TTITLE19=California Blues
EXTD=
EXTT0=
EXTT1=
EXTT2=
EXTT3=
EXTT4=
EXTT5=
EXTT6=
EXTT7=
EXTT8=
EXTT9=
EXTT10=
EXTT11=
EXTT12=
EXTT13=
EXTT14=
EXTT15=
EXTT16=
EXTT17=
EXTT18=
EXTT19=
PLAYORDER=
